<?xml version="1.0" encoding="utf-8"?>
<!-- Generator: Adobe Illustrator 21.0.0, SVG Export Plug-In . SVG Version: 6.00 Build 0)  -->
<svg version="1.1" id="Layer_1" xmlns="http://www.w3.org/2000/svg" xmlns:xlink="http://www.w3.org/1999/xlink" x="0px" y="0px"
	 viewBox="0 0 612 792" style="enable-background:new 0 0 612 792;" xml:space="preserve">
<style type="text/css">
	.st0{fill:#FFFFFF;}
	.st1{fill:#878787;stroke:#5B325B;stroke-miterlimit:10;}
</style>
<g>
	<path class="st0" d="M549.6,521.3c-127.9,0-255.9,0-383.9,0c0-128.2,0-256.4,0-384.7c127.9,0,255.8,0,383.9,0
		C549.6,264.7,549.6,393,549.6,521.3z M410.4,493.5c1.5,0,2.8,0,4,0c21.5,0,43,0,64.5,0c25.8,0,43.9-18,43.9-43.9
		c0-80.7,0-161.5,0-242.2c0-25.9-18-43.9-43.8-43.9c-80.9,0-161.7,0-242.6,0c-25.5,0-43.6,18.1-43.6,43.7c0,80.9,0,161.7,0,242.6
		c0,25.5,18.1,43.6,43.7,43.6c38.2,0,76.5,0,114.7,0c1.3,0,2.6-0.1,3.9-0.2c0-45.9,0-91.3,0-137.2c-9.2,0-18.1,0-27.1,0
		c0-18.5,0-36.5,0-55c9,0,17.8,0,27,0c0-1.7,0-2.9,0-4.1c0-6.6-0.1-13.2,0-19.9c0.2-13.4,2.8-26.1,10.8-37.2
		c10.5-14.6,25.6-20.4,42.8-20.9c15-0.5,30-0.1,45,0c0.5,0,0.9,0.2,1.5,0.3c0,15.6,0,31,0,46.9c-1.4,0-2.6,0-3.8,0
		c-8.6,0-17.2,0-25.9,0c-8.7,0.1-12.8,4.2-13,12.9c-0.1,5,0,10,0,15c0,2.3,0,4.6,0,7.4c14.9,0,29.2,0,43.6,0
		c-1.7,18.5-3.3,36.5-5,54.8c-13.7,0-27,0-40.5,0C410.4,402.1,410.4,447.5,410.4,493.5z"/>
	<path class="st1" d="M410.4,493.5c0-46,0-91.4,0-137.2c13.5,0,26.8,0,40.5,0c1.7-18.3,3.3-36.3,5-54.8c-14.4,0-28.7,0-43.6,0
		c0-2.8,0-5.1,0-7.4c0-5-0.1-10,0-15c0.2-8.7,4.3-12.9,13-12.9c8.6-0.1,17.2,0,25.9,0c1.2,0,2.4,0,3.8,0c0-15.8,0-31.3,0-46.9
		c-0.6-0.1-1-0.3-1.5-0.3c-15,0-30-0.4-45,0c-17.2,0.5-32.3,6.3-42.8,20.9c-7.9,11.1-10.6,23.8-10.8,37.2c-0.1,6.6,0,13.2,0,19.9
		c0,1.2,0,2.5,0,4.1c-9.1,0-17.9,0-27,0c0,18.5,0,36.5,0,55c9,0,17.9,0,27.1,0c0,45.8,0,91.3,0,137.2c-1.3,0.1-2.6,0.2-3.9,0.2
		c-38.2,0-76.5,0-114.7,0c-25.6,0-43.7-18.1-43.7-43.6c0-80.9,0-161.7,0-242.6c0-25.6,18.1-43.7,43.6-43.7c80.9,0,161.7,0,242.6,0
		c25.8,0,43.8,18.1,43.8,43.9c0,80.7,0,161.5,0,242.2c0,25.8-18,43.8-43.9,43.9c-21.5,0-43,0-64.5,0
		C413.2,493.5,411.9,493.5,410.4,493.5z"/>
</g>
</svg>
