<?xml version="1.0" encoding="utf-8"?>
<!-- Generator: Adobe Illustrator 21.0.0, SVG Export Plug-In . SVG Version: 6.00 Build 0)  -->
<svg version="1.1" id="Layer_1" xmlns="http://www.w3.org/2000/svg" xmlns:xlink="http://www.w3.org/1999/xlink" x="0px" y="0px"
	 viewBox="0 0 612 792" style="enable-background:new 0 0 612 792;" xml:space="preserve">
<style type="text/css">
	.st0{fill:#616161;}
	.st1{fill:#FFFFFF;}
</style>
<g>
	<path class="st0" d="M114.8,553.5c0-104.5,0-209,0-313.5c0.2-0.4,0.6-0.8,0.6-1.3c2-11.2,7.6-20.3,17.1-26.4
		c5.3-3.4,11.6-5.1,17.5-7.6c104.5,0,209,0,313.5,0c0.6,0.2,1.1,0.6,1.7,0.7c15.7,3.4,26.2,12.8,31.6,27.9c0.8,2.2,1.3,4.4,2,6.7
		c0,104.5,0,209,0,313.5c-0.2,0.5-0.6,1.1-0.7,1.6c-3.5,15.9-13,26.4-28.2,31.8c-2.1,0.7-4.2,1.2-6.3,1.8c-104.5,0-209,0-313.5,0
		c-0.5-0.2-1.1-0.6-1.6-0.7c-15.7-3.4-26.2-12.8-31.6-27.9C116,558,115.4,555.7,114.8,553.5z M334,465.6c7.7,8.3,9.4,18.3,9.4,28.9
		c-0.1,12.5-0.1,25-0.1,37.5c0,6.2,3.8,9.1,9.8,7.9c1.1-0.2,2.1-0.6,3.2-1.1c56.9-22.7,90-64.1,96.6-125.1
		c4.7-43.4-9-81.8-38.8-113.7c-47.8-51.1-122.7-61.4-183.1-25.7c-49.3,29.2-77.9,87.6-70.3,143.9c5.3,39.1,23,71.4,53.6,96.5
		c13.3,11,28.3,19.2,44.6,24.8c7,2.4,11.3-0.8,11.3-8.1c0-7.6-0.1-15.2-0.2-22.9c0-0.9-0.2-1.9-0.2-2.2c-7.2,0.2-14.1,1.1-20.8,0.6
		c-13.6-1.1-23.9-7.3-29.2-20.5c-3.5-8.5-8.7-15.6-16.6-20.7c-1.9-1.2-2.9-3.9-4.3-5.9c2.5-0.7,5.1-1.3,7.6-1.9
		c0.2-0.1,0.5,0.1,0.7,0.1c9.6,1.6,16,7.6,21,15.5c8.7,13.8,21.2,18.3,36.8,13.7c3.8-1.1,5.8-2.8,6.8-7c1.1-4.5,3.9-8.5,6.1-12.7
		c0.4-0.7,0.8-1.3,1.3-2c-5.3-1-10.4-1.7-15.4-2.9c-20.7-4.8-37.3-15.2-45.1-36c-2.8-7.5-4.3-15.7-5.3-23.6
		c-2.1-17.6,1.1-34.1,13.1-48.1c0.8-0.9,1-2.7,0.7-3.9c-2.8-9.6-2.7-19.2-0.2-28.9c2.3-9,3.1-9.4,12.4-7.4
		c10.3,2.3,19.3,7.4,28.1,12.9c1.5,0.9,3.8,1.3,5.4,0.9c18.1-4.3,36.3-5.3,54.7-2.4c5.3,0.8,10.8,3.5,15.7,2.7c4.9-0.8,9.3-5,14-7.6
		c2.5-1.4,5.1-2.8,7.8-3.6c5.3-1.4,10.6-2.5,16-3.6c1.9-0.4,3.1,0.4,3.8,2.5c3.8,11.2,5,22.4,1.4,33.8c-0.7,2.2-0.2,3.6,1.2,5.3
		c5.2,6,8.8,13,10.9,20.7c3.3,12,2.6,24,0.5,36c-4.4,25.4-19.1,41.7-44,48.6C348.2,463,341.3,464.1,334,465.6z M269.5,492.3
		c0-0.4-0.1-0.7-0.1-1.1c-1-0.5-2.2-1.5-3-1.2c-1.2,0.3-2.2,1.6-3.2,2.4c0.9,0.6,1.9,1.8,2.8,1.7C267.2,494,268.4,493,269.5,492.3z
		 M258.2,494.3c0-0.4,0-0.7,0.1-1.1c-0.9-0.6-1.9-1.8-2.8-1.7c-1.2,0.1-2.4,1.2-3.5,1.8c0.8,0.8,1.6,2.1,2.5,2.2
		C255.6,495.6,256.9,494.7,258.2,494.3z M229,485c2,1.4,3.3,2.4,4.6,3.1c0.2,0.1,1.2-1.1,1.8-1.8c-1.2-1.1-2.3-2.3-3.6-3.2
		C231.6,482.9,230.6,484,229,485z M242.8,488.7c-1.3,1.1-2,1.7-2.8,2.4c1.1,0.9,2.1,2.1,3.4,2.6c0.5,0.2,1.6-0.9,2.5-1.5
		C245,491.1,244,490,242.8,488.7z M224.7,473.4c-0.7,1.9-1.5,2.9-1.2,3.3c0.7,1.1,1.8,2,2.7,3c0.5-0.7,1.6-1.6,1.4-2.1
		C227.1,476.5,226.1,475.4,224.7,473.4z"/>
	<path class="st1" d="M150,204.8c-5.9,2.5-12.2,4.2-17.5,7.6c-9.5,6.1-15.1,15.2-17.1,26.4c-0.1,0.5-0.4,0.9-0.6,1.3
		c0-11.8,0-23.5,0-35.3C126.5,204.8,138.3,204.8,150,204.8z"/>
	<path class="st1" d="M114.8,553.5c0.7,2.2,1.2,4.5,2,6.7c5.4,15.1,15.9,24.4,31.6,27.9c0.6,0.1,1.1,0.5,1.6,0.7
		c-11.8,0-23.5,0-35.3,0C114.8,577,114.8,565.3,114.8,553.5z"/>
	<path class="st1" d="M498.8,240c-0.7-2.2-1.2-4.5-2-6.7c-5.4-15.1-15.9-24.5-31.6-27.9c-0.6-0.1-1.1-0.5-1.7-0.7
		c11.8,0,23.5,0,35.3,0C498.8,216.5,498.8,228.3,498.8,240z"/>
	<path class="st1" d="M463.5,588.8c2.1-0.6,4.3-1.1,6.3-1.8c15.2-5.4,24.8-15.9,28.2-31.8c0.1-0.6,0.5-1.1,0.7-1.6
		c0,11.8,0,23.5,0,35.3C487,588.8,475.3,588.8,463.5,588.8z"/>
	<path class="st1" d="M334,465.6c7.2-1.5,14.1-2.7,20.8-4.5c24.9-6.9,39.6-23.2,44-48.6c2.1-12,2.8-24.1-0.5-36
		c-2.1-7.7-5.7-14.7-10.9-20.7c-1.4-1.7-1.9-3.1-1.2-5.3c3.6-11.4,2.4-22.7-1.4-33.8c-0.7-2.1-1.9-2.9-3.8-2.5
		c-5.4,1.1-10.7,2.1-16,3.6c-2.7,0.7-5.3,2.2-7.8,3.6c-4.7,2.6-9.1,6.8-14,7.6c-5,0.8-10.4-1.9-15.7-2.7
		c-18.4-2.9-36.6-1.9-54.7,2.4c-1.7,0.4-4,0-5.4-0.9c-8.9-5.4-17.8-10.6-28.1-12.9c-9.3-2-10.1-1.6-12.4,7.4
		c-2.5,9.6-2.6,19.2,0.2,28.9c0.3,1.2,0.1,3-0.7,3.9c-12,14-15.2,30.4-13.1,48.1c0.9,8,2.5,16.1,5.3,23.6
		c7.7,20.8,24.3,31.2,45.1,36c5,1.2,10,1.9,15.4,2.9c-0.4,0.7-0.9,1.3-1.3,2c-2.1,4.2-5,8.2-6.1,12.7c-1,4.2-3,5.9-6.8,7
		c-15.6,4.6-28.1,0-36.8-13.7c-5-7.9-11.4-13.9-21-15.5c-0.2,0-0.5-0.2-0.7-0.1c-2.5,0.6-5.1,1.3-7.6,1.9c1.4,2,2.4,4.7,4.3,5.9
		c7.9,5.1,13.1,12.2,16.6,20.7c5.4,13.2,15.7,19.4,29.2,20.5c6.8,0.5,13.7-0.3,20.8-0.6c0,0.3,0.2,1.2,0.2,2.2
		c0.1,7.6,0.2,15.2,0.2,22.9c0,7.3-4.4,10.4-11.3,8.1c-16.4-5.6-31.3-13.8-44.6-24.8c-30.5-25.1-48.3-57.3-53.6-96.5
		c-7.6-56.3,21-114.7,70.3-143.9c60.3-35.7,135.3-25.4,183.1,25.7c29.8,31.9,43.5,70.3,38.8,113.7c-6.6,61-39.7,102.4-96.6,125.1
		c-1,0.4-2.1,0.8-3.2,1.1c-6.1,1.2-9.8-1.7-9.8-7.9c0-12.5,0.1-25,0.1-37.5C343.5,483.9,341.7,473.9,334,465.6z"/>
	<path class="st1" d="M269.5,492.3c-1.2,0.6-2.3,1.7-3.6,1.8c-0.9,0.1-1.9-1.1-2.8-1.7c1.1-0.9,2-2.1,3.2-2.4c0.8-0.2,2,0.8,3,1.2
		C269.5,491.6,269.5,492,269.5,492.3z"/>
	<path class="st1" d="M258.2,494.3c-1.3,0.4-2.5,1.3-3.8,1.2c-0.9-0.1-1.6-1.4-2.5-2.2c1.2-0.7,2.3-1.7,3.5-1.8
		c0.9-0.1,1.8,1.1,2.8,1.7C258.2,493.5,258.2,493.9,258.2,494.3z"/>
	<path class="st1" d="M229,485c1.5-1,2.6-2.1,2.9-1.9c1.3,0.9,2.4,2.1,3.6,3.2c-0.6,0.6-1.5,1.9-1.8,1.8
		C232.3,487.4,231,486.4,229,485z"/>
	<path class="st1" d="M242.8,488.7c1.2,1.4,2.2,2.4,3.1,3.5c-0.8,0.5-2,1.7-2.5,1.5c-1.3-0.5-2.3-1.7-3.4-2.6
		C240.8,490.4,241.5,489.7,242.8,488.7z"/>
	<path class="st1" d="M224.7,473.4c1.5,2,2.5,3.1,2.9,4.3c0.2,0.4-0.9,1.4-1.4,2.1c-0.9-1-2.1-1.9-2.7-3
		C223.2,476.3,224,475.3,224.7,473.4z"/>
</g>
</svg>
