<?xml version="1.0" encoding="utf-8"?>
<!-- Generator: Adobe Illustrator 21.0.0, SVG Export Plug-In . SVG Version: 6.00 Build 0)  -->
<svg version="1.1" id="Layer_1" xmlns="http://www.w3.org/2000/svg" xmlns:xlink="http://www.w3.org/1999/xlink" x="0px" y="0px"
	 viewBox="0 0 612 792" style="enable-background:new 0 0 612 792;" xml:space="preserve">
<style type="text/css">
	.st0{fill:#383838;}
	.st1{fill:#FFFFFF;}
	.st2{fill:#616161;}
	.st3{fill:#5B5B5B;}
</style>
<g>
	<path class="st0" d="M563,265c0,88,0,176,0,264c-0.3,1.3-0.7,2.5-0.9,3.8c-8.2,56.3-39.1,94.2-92.5,113.3
		c-9.8,3.5-20.4,4.6-30.6,6.8c-88,0-176,0-264,0c-1.1-0.3-2.2-0.7-3.3-0.8c-56.5-8-94.6-39-113.9-92.6c-3.5-9.7-4.6-20.3-6.8-30.5
		c0-88,0-176,0-264c0.3-1.6,0.8-3.2,1-4.8c5.3-51.7,44.2-98.5,94.3-113.1c9.4-2.7,19.1-4.1,28.7-6.1c88,0,176,0,264,0
		c1.3,0.3,2.6,0.7,3.9,0.9c55.7,8,93.4,38.5,112.9,91.1C559.5,243.2,560.6,254.3,563,265z M473,397.1c0-24.8,0-49.7,0-74.5
		c-0.1-51.9-39.6-91.5-91.4-91.6c-49.8-0.1-99.7-0.1-149.5,0.1c-5.8,0-11.7,0.4-17.4,1.5c-44,8.7-73.7,44.9-73.7,89.8
		c0,49.5,0,99,0,148.5c0,52.6,39.4,92.1,91.9,92.1c49.3,0,98.7,0,148,0c52.6,0,92-39.4,92.1-91.9C473,446.4,473,421.8,473,397.1z"/>
	<path class="st1" d="M51,529c2.2,10.2,3.3,20.8,6.8,30.5c19.2,53.7,57.3,84.6,113.9,92.6c1.1,0.2,2.2,0.6,3.3,0.8
		c-41.3,0-82.5,0-124,0C51,611.7,51,570.3,51,529z"/>
	<path class="st1" d="M175,141c-9.6,2-19.3,3.4-28.7,6.1c-50.1,14.6-89,61.4-94.3,113.1c-0.2,1.6-0.6,3.2-1,4.8c0-41.3,0-82.7,0-124
		C92.3,141,133.7,141,175,141z"/>
	<path class="st1" d="M563,265c-2.4-10.7-3.5-21.8-7.3-32c-19.5-52.6-57.1-83.2-112.9-91.1c-1.3-0.2-2.6-0.6-3.9-0.9
		c41.3,0,82.7,0,124,0C563,182.3,563,223.7,563,265z"/>
	<path class="st1" d="M439,653c10.2-2.2,20.8-3.3,30.6-6.8c53.5-19.1,84.4-57,92.5-113.3c0.2-1.3,0.6-2.6,0.9-3.8
		c0,41.3,0,82.7,0,124C521.7,653,480.3,653,439,653z"/>
	<path class="st1" d="M473,397.1c0,24.7,0,49.3,0,74c-0.1,52.5-39.5,91.9-92.1,91.9c-49.3,0-98.7,0-148,0
		c-52.5,0-91.9-39.6-91.9-92.1c0-49.5,0-99,0-148.5c0-44.9,29.8-81.2,73.7-89.8c5.7-1.1,11.6-1.5,17.4-1.5
		c49.8-0.1,99.7-0.1,149.5-0.1c51.8,0.1,91.3,39.7,91.4,91.6C473,347.4,473,372.3,473,397.1z M443,397c0-25,0-50,0-75
		c-0.1-34.7-26.4-61-61.2-61c-49.8-0.1-99.6,0-149.4,0c-35,0-61.3,26.3-61.4,61.3c0,49.8,0,99.6,0,149.4c0,34.9,26.4,61.2,61.4,61.3
		c49.6,0.1,99.3,0,148.9,0c35.4,0,61.6-26.2,61.6-61.5C443,446.6,443,421.8,443,397z"/>
	<path class="st2" d="M443,397c0,24.8,0,49.6,0,74.5c-0.1,35.3-26.3,61.5-61.6,61.5c-49.6,0-99.3,0-148.9,0
		c-35,0-61.4-26.3-61.4-61.3c0-49.8,0-99.6,0-149.4c0-35,26.4-61.2,61.4-61.3c49.8,0,99.6-0.1,149.4,0c34.7,0,61.1,26.3,61.2,61
		C443,347,443,372,443,397z M232,396.9c0,41.3,33.6,75.1,74.9,75.1c41.3,0,75-33.6,75.1-74.9c0-41.3-33.6-75-74.9-75.1
		C265.7,322,232,355.6,232,396.9z M408,311.2c0.1-8.1-6.6-15-14.7-15.2c-8.1-0.2-15.1,6.4-15.3,14.5c-0.2,8.3,6.6,15.4,14.9,15.4
		C401,326,407.9,319.3,408,311.2z"/>
	<path class="st1" d="M232,396.9c0-41.3,33.7-74.9,75.1-74.9c41.3,0,75,33.7,74.9,75.1c0,41.3-33.7,74.9-75.1,74.9
		C265.7,472,232,438.2,232,396.9z M306.9,352c-24.7,0.1-44.8,20.2-44.9,44.9c0,24.9,20.2,45.2,45.1,45.1
		c24.7-0.1,44.8-20.2,44.8-44.9C352,372.2,331.8,352,306.9,352z"/>
	<path class="st1" d="M408,311.2c-0.1,8.1-7,14.8-15.1,14.8c-8.3,0-15.2-7.1-14.9-15.4c0.2-8.1,7.2-14.7,15.3-14.5
		C401.4,296.2,408.1,303.1,408,311.2z"/>
	<path class="st3" d="M306.9,352c24.9-0.1,45.2,20.2,45.1,45.1c-0.1,24.7-20.2,44.8-44.8,44.9c-24.9,0.1-45.2-20.2-45.1-45.1
		C262.1,372.2,282.2,352.1,306.9,352z"/>
</g>
</svg>
