<?xml version="1.0" encoding="utf-8"?>
<!-- Generator: Adobe Illustrator 21.0.0, SVG Export Plug-In . SVG Version: 6.00 Build 0)  -->
<svg version="1.1" id="Layer_1" xmlns="http://www.w3.org/2000/svg" xmlns:xlink="http://www.w3.org/1999/xlink" x="0px" y="0px"
	 viewBox="0 0 612 792" style="enable-background:new 0 0 612 792;" xml:space="preserve">
<style type="text/css">
	.st0{fill:#FFFFFF;}
	.st1{fill:#5093E2;}
</style>
<g>
	<path class="st0" d="M180.3,243.5c84,0,167.9,0,251.9,0c1.8,0.4,3.6,0.7,5.4,1.2c13.2,3.6,21.2,13.9,21.2,28.1
		c0,82.4,0,164.7,0,247.1c0,6.4-1.6,12.5-5.6,17.9c-6.2,8.1-14.7,11.1-24.5,11.1c-79.8,0-159.6,0-239.3,0c-3.7,0-7.3-0.2-11-0.5
		c-11.9-0.8-21.4-9.9-24-21.5c-0.3-1.5-0.6-3-0.9-4.6c0-84,0-167.9,0-251.9c0.3-0.8,0.7-1.6,0.8-2.5c1-11.3,10.8-21.9,21.8-23.5
		C177.4,244.1,178.8,243.7,180.3,243.5z M321.3,373.2c0-2.8,0-5.9,0-9c0-5.7-3.2-8.8-8.8-8.8c-11,0-22.1,0-33.1,0
		c-6,0-9.2,3.1-9.2,9.2c0,47.2,0,94.5,0,141.7c0,6.3,3.2,9.5,9.6,9.5c10.6,0,21.3,0,31.9,0c6.6,0,9.6-3.1,9.6-9.7
		c0-24.1,0-48.1,0-72.2c0-7.9,1.7-15.3,5.1-22.4c4.9-10.2,14.1-15.4,25.5-14.4c10.7,1,18.2,7.1,20.9,18.2c1.4,5.6,2.2,11.5,2.3,17.3
		c0.2,24.7,0.1,49.3,0.1,74c0,6.1,3,9.1,9.1,9.1c11.1,0,22.3,0,33.4,0c6.5,0,9.7-3.2,9.7-9.7c-0.1-28.7-0.1-57.5-0.6-86.2
		c-0.2-11.7-2-23.3-6.4-34.3c-4.9-12.2-12.6-21.8-24.8-27.3c-11.7-5.3-24-5.9-36.5-4.8c-9.1,0.8-17.9,3-25.4,8.6
		C329.4,365.4,325.5,369.5,321.3,373.2z M197.3,435.6c0,23.5,0,46.9,0,70.4c0,6.6,3.2,9.9,9.9,9.9c9.9,0,19.9,0,29.8,0
		c8.5,0,11.4-2.9,11.4-11.5c0-45.8,0-91.7,0-137.5c0-0.8,0-1.6,0-2.4c-0.3-5.7-3.7-9-9.3-9c-10.7,0-21.5,0-32.2,0
		c-6.5,0-9.6,3.2-9.6,9.7C197.3,388.6,197.3,412.1,197.3,435.6z M255.7,309.8c0-18.2-14.8-33.1-32.9-33.1
		c-17.9,0-32.9,14.7-32.9,32.8c0,18.8,14.7,32.9,32.9,33.1C240.8,342.8,255.7,327.8,255.7,309.8z"/>
	<path class="st0" d="M153.4,522.2c0.3,1.5,0.6,3.1,0.9,4.6c2.6,11.6,12.1,20.7,24,21.5c3.7,0.3,7.3,0.5,11,0.5
		c79.8,0,159.6,0,239.3,0c9.8,0,18.3-3,24.5-11.1c4-5.3,5.6-11.4,5.6-17.9c0.1-82.4,0.1-164.7,0-247.1c0-14.2-7.9-24.6-21.2-28.1
		c-1.8-0.5-3.6-0.8-5.4-1.2c9.2,0,18.3,0,27.5,0c0,102.1,0,204.1,0,306.2c-102.1,0-204.1,0-306.2,0
		C153.4,540.5,153.4,531.4,153.4,522.2z"/>
	<path class="st0" d="M180.3,243.5c-1.4,0.3-2.8,0.6-4.3,0.8c-11.1,1.7-20.8,12.2-21.8,23.5c-0.1,0.8-0.5,1.7-0.8,2.5
		c0-9,0-17.9,0-26.9C162.4,243.5,171.3,243.5,180.3,243.5z"/>
	<path class="st1" d="M321.3,373.2c4.1-3.7,8-7.9,12.5-11.2c7.4-5.6,16.3-7.7,25.4-8.6c12.5-1.2,24.8-0.5,36.5,4.8
		c12.2,5.5,19.9,15.1,24.8,27.3c4.4,11,6.2,22.6,6.4,34.3c0.4,28.7,0.4,57.5,0.6,86.2c0,6.5-3.2,9.7-9.7,9.7c-11.1,0-22.3,0-33.4,0
		c-6.1,0-9.1-3-9.1-9.1c0-24.7,0.1-49.3-0.1-74c-0.1-5.8-0.9-11.7-2.3-17.3c-2.7-11.1-10.2-17.3-20.9-18.2
		c-11.4-1-20.6,4.2-25.5,14.4c-3.4,7.1-5.1,14.6-5.1,22.4c0,24.1,0,48.1,0,72.2c0,6.6-3,9.7-9.6,9.7c-10.6,0-21.3,0-31.9,0
		c-6.4,0-9.6-3.2-9.6-9.5c0-47.3,0-94.5,0-141.7c0-6,3.2-9.2,9.2-9.2c11,0,22.1,0,33.1,0c5.7,0,8.8,3.1,8.8,8.8
		C321.4,367.4,321.3,370.4,321.3,373.2z"/>
	<path class="st1" d="M197.3,435.6c0-23.5,0-46.9,0-70.4c0-6.6,3.1-9.7,9.6-9.7c10.7,0,21.5,0,32.2,0c5.6,0,9,3.3,9.3,9
		c0,0.8,0,1.6,0,2.4c0,45.8,0,91.7,0,137.5c0,8.6-2.9,11.5-11.4,11.5c-9.9,0-19.9,0-29.8,0c-6.6,0-9.9-3.3-9.9-9.9
		C197.3,482.5,197.3,459,197.3,435.6z"/>
	<path class="st1" d="M255.7,309.8c0,18-14.9,33-32.9,32.8c-18.2-0.2-32.9-14.2-32.9-33.1c0-18.2,14.9-32.8,32.9-32.8
		C240.9,276.7,255.7,291.6,255.7,309.8z"/>
</g>
</svg>
