<?xml version="1.0" encoding="utf-8"?>
<!-- Generator: Adobe Illustrator 21.0.0, SVG Export Plug-In . SVG Version: 6.00 Build 0)  -->
<svg version="1.1" id="Layer_1" xmlns="http://www.w3.org/2000/svg" xmlns:xlink="http://www.w3.org/1999/xlink" x="0px" y="0px"
	 viewBox="0 0 612 792" style="enable-background:new 0 0 612 792;" xml:space="preserve">
<style type="text/css">
	.st0{fill:#FFFFFF;}
	.st1{fill:#A6A6A6;}
</style>
<g>
	<path class="st0" d="M101.6,601.6c0-136.7,0-273.5,0-410.3c137,0,273.9,0,411,0c0,136.7,0,273.5,0,410.3
		C375.7,601.6,238.7,601.6,101.6,601.6z M225.3,491.2c-36.7,27.6-77.2,38.6-122.6,34.6c0.8,0.8,1.2,1.1,1.6,1.4
		c18.5,11.6,38.2,20.5,59.2,26.5c28.9,8.3,58.3,11.1,88.2,8.7c25.1-2,49.5-7.5,72.8-17.2c42.9-17.9,77.1-46.5,102.8-85.2
		c28.8-43.4,43.3-91.1,42.1-143.3c0-1.7,1.2-4,2.5-5.2c6.1-5.6,12.8-10.5,18.5-16.4c7.2-7.5,13.6-15.7,20.4-23.6
		c-0.3-0.3-0.6-0.6-0.8-0.9c-4.8,1.8-9.6,3.7-14.5,5.2c-5.1,1.6-10.2,3-15.4,4.2c-4.9,1.1-9.8,1.9-14.7,2.8
		c16.1-11.9,27.8-26.2,34.2-45.7c-1.8,0.9-2.9,1.4-3.9,1.9c-13.8,7.7-28.5,13.1-43.8,16.9c-4,1-6.4,0.1-9.4-2.6
		c-21.4-19.6-46.7-26.8-75.1-20.8c-40.5,8.5-68.2,45.6-65.9,86.4c0.3,4.8,0.9,9.7,1.3,14.9c-70.1-4.8-127.4-34.2-172.6-87.5
		c-16.5,25.6-20.1,78.8,24.7,111.6c-13.4-0.3-25.1-4.2-36.6-9.9c-1.3,32.2,20.4,71.9,65.9,83.2c-12.3,3.4-24.2,3.1-37,1.6
		C161.4,468.3,186.9,487.7,225.3,491.2z"/>
	<path class="st1" d="M225.3,491.2c-38.4-3.5-63.9-22.8-78.2-58.6c12.8,1.6,24.7,1.9,37-1.6c-45.4-11.3-67.1-51-65.9-83.2
		c11.5,5.7,23.2,9.6,36.6,9.9c-44.8-32.7-41.2-86-24.7-111.6c45.2,53.2,102.5,82.7,172.6,87.5c-0.5-5.2-1-10-1.3-14.9
		c-2.4-40.8,25.4-77.8,65.9-86.4c28.3-6,53.6,1.2,75.1,20.8c3,2.7,5.4,3.6,9.4,2.6c15.3-3.9,30-9.2,43.8-16.9c1-0.6,2.1-1,3.9-1.9
		c-6.4,19.5-18.2,33.9-34.2,45.7c4.9-0.9,9.9-1.6,14.7-2.8c5.2-1.2,10.3-2.6,15.4-4.2c4.9-1.6,9.7-3.5,14.5-5.2
		c0.3,0.3,0.6,0.6,0.8,0.9c-6.8,7.9-13.2,16.2-20.4,23.6c-5.7,5.9-12.5,10.8-18.5,16.4c-1.3,1.2-2.5,3.5-2.5,5.2
		c1.2,52.3-13.3,100-42.1,143.3c-25.7,38.6-59.9,67.3-102.8,85.2c-23.3,9.7-47.6,15.2-72.8,17.2c-29.9,2.4-59.3-0.3-88.2-8.7
		c-21-6.1-40.7-14.9-59.2-26.5c-0.4-0.3-0.7-0.6-1.6-1.4C148.1,529.8,188.6,518.8,225.3,491.2z"/>
</g>
</svg>
